<svg xmlns="http://www.w3.org/2000/svg" viewBox="0 0 128 128">
  <defs><linearGradient id="bg" x1="0" y1="0" x2="1" y2="1"><stop stop-color="#d7fff1"/><stop offset="1" stop-color="#72dcb7"/></linearGradient></defs>
  <circle cx="64" cy="64" r="60" fill="url(#bg)"/>
  <ellipse cx="45" cy="34" rx="15" ry="29" transform="rotate(-12 45 34)" fill="#fff" stroke="#3f7066" stroke-width="5"/>
  <ellipse cx="83" cy="34" rx="15" ry="29" transform="rotate(12 83 34)" fill="#fff" stroke="#3f7066" stroke-width="5"/>
  <ellipse cx="45" cy="34" rx="6" ry="19" transform="rotate(-12 45 34)" fill="#ffb5cd"/>
  <ellipse cx="83" cy="34" rx="6" ry="19" transform="rotate(12 83 34)" fill="#ffb5cd"/>
  <circle cx="64" cy="73" r="39" fill="#fff" stroke="#3f7066" stroke-width="5"/>
  <circle cx="49" cy="68" r="5" fill="#315a52"/><circle cx="79" cy="68" r="5" fill="#315a52"/>
  <circle cx="47" cy="66" r="1.6" fill="#fff"/><circle cx="77" cy="66" r="1.6" fill="#fff"/>
  <path d="m64 74-6 5 6 4 6-4z" fill="#ff87ad"/>
  <path d="M64 82v7m0 0-7 5m7-5 7 5" fill="none" stroke="#3f7066" stroke-width="4" stroke-linecap="round"/>
  <circle cx="40" cy="81" r="7" fill="#ffb5cd" opacity=".6"/><circle cx="88" cy="81" r="7" fill="#ffb5cd" opacity=".6"/>
</svg>
